<?xml version="1.0" standalone="no"?>
<!DOCTYPE svg PUBLIC "-//W3C//DTD SVG 20010904//EN"
 "http://www.w3.org/TR/2001/REC-SVG-20010904/DTD/svg10.dtd">
<svg version="1.0" xmlns="http://www.w3.org/2000/svg"
 width="991.000000pt" height="991.000000pt" viewBox="0 0 991.000000 991.000000"
 preserveAspectRatio="xMidYMid meet">
<metadata>
Created by potrace 1.11, written by Peter Selinger 2001-2013
</metadata>
<g transform="translate(0.000000,991.000000) scale(0.100000,-0.100000)"
fill="#000000" stroke="none">
<path d="M4738 9685 c-2 -2 -50 -5 -108 -8 -58 -3 -121 -8 -140 -11 -19 -2
-62 -7 -95 -10 -33 -4 -73 -9 -90 -11 -16 -3 -47 -7 -67 -10 -42 -6 -324 -60
-338 -65 -3 -1 -9 -3 -15 -5 -5 -1 -12 -3 -15 -4 -3 -2 -13 -4 -24 -6 -10 -2
-41 -9 -70 -16 -28 -7 -54 -14 -58 -15 -5 -1 -10 -3 -13 -4 -3 -1 -8 -3 -12
-4 -61 -14 -113 -32 -113 -38 0 -5 -4 -7 -8 -4 -8 4 -238 -68 -297 -94 -138
-59 -264 -110 -273 -110 -7 0 -12 -4 -12 -10 0 -5 -5 -10 -11 -10 -7 0 -68
-29 -138 -64 -165 -83 -195 -100 -199 -108 -2 -5 -8 -8 -13 -8 -10 0 -179 -98
-189 -110 -3 -3 -17 -11 -32 -17 -16 -7 -28 -17 -28 -23 0 -5 -7 -10 -15 -10
-8 0 -15 -5 -15 -11 0 -5 -5 -7 -10 -4 -6 3 -13 -1 -16 -9 -3 -9 -12 -16 -19
-16 -8 0 -20 -6 -27 -13 -7 -7 -24 -20 -38 -29 -59 -40 -114 -80 -125 -91 -7
-7 -23 -19 -35 -27 -12 -8 -28 -20 -34 -25 -6 -6 -29 -24 -51 -40 -21 -17 -47
-37 -55 -45 -9 -8 -36 -31 -59 -50 -151 -123 -451 -428 -576 -585 -22 -27 -44
-55 -50 -61 -5 -6 -19 -23 -30 -38 -11 -16 -25 -34 -31 -40 -7 -7 -48 -64 -93
-127 -44 -63 -84 -118 -89 -124 -10 -13 -143 -228 -176 -285 -53 -93 -168
-319 -205 -405 -12 -27 -28 -63 -36 -80 -18 -39 -77 -186 -80 -200 -1 -5 -7
-21 -12 -35 -20 -49 -62 -175 -65 -195 -2 -11 -5 -22 -8 -25 -6 -5 -61 -199
-61 -212 0 -4 -6 -26 -14 -48 -8 -22 -14 -42 -15 -45 0 -3 0 -6 -1 -7 0 -2 -2
-14 -4 -28 -3 -14 -6 -32 -8 -40 -4 -16 -16 -75 -21 -100 -2 -8 -6 -31 -9 -50
-4 -19 -9 -48 -12 -65 -3 -16 -9 -55 -14 -85 -6 -30 -13 -77 -16 -105 -4 -27
-8 -66 -11 -85 -32 -240 -36 -714 -9 -975 12 -117 18 -171 31 -257 4 -24 8
-50 9 -58 5 -43 18 -115 35 -195 10 -49 21 -101 24 -115 9 -45 66 -263 72
-271 3 -5 7 -18 9 -30 8 -40 77 -244 87 -256 6 -7 8 -13 5 -13 -4 0 9 -36 27
-79 19 -44 31 -82 28 -85 -3 -4 0 -6 6 -6 7 0 11 -3 10 -7 -2 -5 8 -33 22 -63
13 -30 25 -57 25 -60 7 -25 49 -106 58 -112 7 -4 9 -8 4 -8 -9 0 63 -142 78
-152 5 -4 6 -8 2 -8 -5 0 1 -16 13 -35 23 -38 55 -94 91 -160 12 -22 25 -42
29 -45 4 -3 10 -15 14 -27 4 -13 12 -23 17 -23 5 0 9 -4 9 -10 0 -12 101 -164
112 -168 4 -2 8 -8 8 -13 0 -12 127 -188 152 -210 10 -9 18 -20 18 -25 0 -5
12 -23 28 -40 15 -17 47 -55 72 -85 25 -29 61 -71 80 -94 55 -63 381 -386 434
-430 27 -22 67 -57 90 -77 22 -21 44 -38 48 -38 4 0 15 -8 25 -18 28 -30 180
-142 191 -142 5 0 12 -7 16 -15 3 -8 12 -15 20 -15 8 0 16 -4 18 -8 3 -8 172
-125 193 -133 6 -2 35 -20 65 -39 30 -19 57 -35 60 -35 3 0 19 -9 35 -20 17
-12 44 -27 60 -35 17 -8 32 -18 35 -21 8 -10 349 -175 380 -184 3 -1 23 -9 45
-19 38 -17 79 -33 227 -90 36 -14 73 -26 81 -26 7 0 17 -3 21 -7 4 -5 11 -8
14 -9 16 -2 68 -17 77 -23 6 -3 15 -6 20 -8 6 -1 44 -11 85 -23 87 -25 108
-31 135 -35 11 -2 20 -4 20 -5 0 -2 35 -10 62 -15 12 -2 38 -9 58 -15 20 -7
39 -9 42 -6 4 3 12 1 19 -5 8 -6 20 -9 28 -6 8 3 17 3 20 -1 7 -7 27 -11 69
-16 15 -2 30 -6 34 -10 3 -3 20 -6 37 -6 17 0 47 -4 66 -9 19 -5 60 -12 90
-15 30 -3 66 -7 80 -10 14 -3 63 -8 110 -11 47 -3 130 -8 185 -12 225 -15 663
-2 795 22 14 3 57 8 95 11 39 3 73 8 76 9 3 2 28 7 55 10 27 4 58 9 69 12 11
4 29 8 40 9 82 11 115 17 115 23 0 3 12 7 28 8 43 2 69 8 212 47 76 20 232 66
250 73 8 3 20 7 25 9 53 13 309 112 408 158 40 18 74 33 77 33 12 -2 370 187
370 195 0 4 6 8 14 8 15 0 56 25 249 152 140 92 172 115 193 136 7 7 15 12 16
10 2 -1 12 5 23 14 11 9 65 52 120 96 55 44 116 94 135 111 221 196 367 344
557 567 10 12 29 36 43 54 14 18 30 38 35 44 24 26 148 199 209 291 36 55 69
105 73 110 17 21 113 187 113 195 0 4 7 13 15 20 8 7 12 16 9 21 -3 5 0 9 5 9
6 0 11 7 11 15 0 8 5 15 10 15 6 0 9 3 8 8 -1 4 33 75 74 159 42 83 74 154 70
157 -3 3 0 6 6 6 7 0 12 5 12 11 0 5 8 29 18 52 20 45 66 159 68 167 0 3 4 14
8 25 23 61 28 75 28 82 0 4 4 13 8 18 5 6 11 22 14 35 2 14 14 52 26 85 12 33
23 67 25 75 2 8 15 53 28 100 24 81 46 172 54 215 2 11 12 61 24 110 11 50 22
108 25 130 10 74 11 80 17 95 3 8 8 44 12 80 3 36 8 83 11 105 37 307 36 852
-1 1080 -3 17 -7 55 -10 85 -4 48 -8 77 -21 140 -2 8 -6 31 -8 50 -5 36 -12
69 -22 118 -3 15 -6 35 -6 45 1 9 -2 17 -6 17 -4 0 -8 10 -8 23 -1 12 -4 31
-7 42 -38 147 -50 193 -50 208 -1 9 -4 17 -7 17 -4 0 -7 6 -8 13 -1 13 -6 34
-14 57 -12 33 -30 96 -30 105 0 6 -5 19 -11 30 -6 11 -12 25 -13 30 -3 17 -46
138 -61 175 -8 19 -18 44 -23 55 -23 60 -33 84 -84 198 -20 42 -35 78 -35 80
2 5 -123 240 -166 312 -25 42 -45 78 -45 80 0 2 -14 24 -30 48 -16 25 -30 49
-30 55 0 6 -4 12 -8 14 -10 4 -92 128 -92 138 0 5 -3 10 -7 12 -5 2 -37 44
-72 93 -36 50 -67 92 -71 95 -3 3 -17 21 -31 40 -15 19 -35 45 -45 56 -11 12
-30 36 -44 54 -25 32 -99 116 -152 172 -15 15 -26 28 -24 28 6 0 -192 196
-274 270 -45 41 -93 85 -106 98 -13 12 -26 22 -29 22 -3 0 -16 11 -29 25 -13
14 -26 25 -30 25 -3 0 -15 8 -25 18 -11 9 -32 27 -48 40 -15 12 -38 30 -50 40
-11 9 -31 24 -43 32 -21 14 -50 37 -77 60 -7 5 -15 10 -18 10 -6 0 -23 13 -56
43 -10 9 -22 18 -26 19 -15 3 -148 91 -151 99 -2 5 -9 9 -16 9 -8 0 -25 9 -40
21 -14 11 -26 17 -26 12 0 -4 -4 -3 -8 3 -17 24 -296 173 -474 253 -27 11 -67
30 -91 40 -24 11 -68 29 -98 41 -30 11 -63 25 -74 30 -53 24 -417 140 -440
140 -8 0 -23 4 -33 9 -24 12 -152 43 -184 45 -10 0 -18 3 -18 6 0 3 -8 6 -17
7 -22 2 -72 10 -133 23 -25 5 -61 12 -80 15 -19 2 -46 7 -60 9 -40 8 -91 14
-150 21 -67 7 -143 15 -190 21 -40 5 -608 13 -612 9z m437 -260 c135 -5 182
-9 275 -20 30 -3 71 -7 90 -9 19 -2 62 -9 95 -14 33 -6 78 -14 100 -17 23 -3
50 -7 60 -9 160 -33 241 -51 350 -82 72 -19 135 -37 140 -38 6 -2 17 -6 25 -9
8 -3 24 -7 35 -9 11 -2 22 -5 25 -8 7 -8 154 -56 159 -52 2 2 7 -1 11 -8 4 -6
17 -12 28 -13 12 -1 22 -5 22 -9 0 -4 6 -8 14 -8 12 0 40 -11 146 -57 108 -47
350 -168 350 -175 0 -4 9 -8 19 -8 11 0 21 -3 23 -7 2 -5 19 -16 38 -26 19 -9
49 -26 65 -37 17 -10 41 -25 55 -33 49 -27 75 -42 80 -48 8 -8 100 -69 105
-69 3 0 13 -6 22 -14 51 -41 114 -86 122 -86 5 0 11 -4 13 -8 2 -4 41 -37 88
-72 46 -36 91 -72 100 -80 9 -8 43 -37 75 -65 62 -52 277 -257 304 -289 9 -10
34 -37 56 -60 77 -79 285 -327 285 -340 0 -6 32 -46 63 -78 9 -10 15 -18 11
-18 -5 0 45 -70 57 -80 3 -3 13 -19 22 -36 9 -17 23 -36 31 -43 9 -7 13 -17
10 -22 -3 -5 2 -12 10 -15 9 -3 16 -10 16 -16 0 -5 30 -59 68 -121 37 -62 90
-157 117 -212 28 -55 54 -103 58 -106 5 -3 8 -9 8 -13 -1 -3 13 -37 30 -74 43
-92 153 -366 170 -424 7 -27 17 -48 22 -48 4 0 6 -4 3 -9 -3 -4 5 -41 19 -82
22 -69 78 -282 89 -339 2 -14 12 -58 20 -97 9 -40 18 -85 20 -100 11 -66 19
-120 22 -148 1 -16 3 -30 4 -30 6 0 22 -181 24 -270 l1 -90 -717 0 -717 0 -7
25 c-4 14 -8 45 -9 70 -2 25 -6 61 -10 80 -7 35 -8 43 -19 115 -3 22 -13 69
-21 105 -9 36 -16 74 -16 85 0 10 -5 25 -11 32 -6 7 -8 13 -5 13 3 0 -3 25
-13 55 -10 30 -16 55 -12 55 3 0 1 5 -6 12 -7 7 -12 22 -12 33 0 12 -3 25 -7
29 -4 3 -8 14 -9 22 -1 9 -6 23 -10 32 -4 9 -8 20 -9 25 -2 4 -3 8 -5 10 -1 1
-3 9 -5 18 -3 16 -11 36 -56 138 -13 30 -22 56 -21 59 2 3 0 8 -5 11 -9 7 -73
138 -72 147 0 4 -3 10 -8 13 -4 3 -23 36 -42 74 -19 37 -38 67 -43 67 -4 0 -8
5 -8 11 0 6 -13 31 -30 56 -16 24 -30 46 -30 48 0 5 -90 129 -127 174 -16 18
-32 41 -37 50 -5 8 -19 25 -30 37 -12 12 -39 44 -61 70 -81 97 -310 315 -400
382 -5 4 -53 40 -107 80 -53 39 -101 72 -107 72 -6 0 -11 4 -11 9 0 5 -13 14
-30 21 -16 7 -30 16 -30 21 0 5 -4 9 -9 9 -5 0 -53 25 -106 55 -54 31 -121 66
-149 79 -28 13 -81 38 -119 55 -37 17 -69 31 -71 31 -2 0 -21 7 -42 16 -22 9
-39 15 -39 14 0 -1 -25 8 -55 20 -30 12 -62 24 -70 25 -8 2 -15 4 -15 5 0 1
-7 3 -15 5 -8 2 -46 13 -85 25 -38 11 -86 23 -105 26 -19 3 -37 9 -40 13 -3 4
-12 6 -20 6 -8 -1 -28 3 -45 7 -16 5 -50 11 -74 14 -25 3 -48 7 -51 9 -4 2
-29 7 -56 10 -27 3 -65 7 -84 10 -179 24 -597 24 -715 0 -11 -2 -40 -7 -65
-10 -56 -7 -98 -13 -130 -21 -14 -4 -36 -8 -50 -10 -14 -1 -35 -5 -47 -8 -13
-3 -31 -8 -41 -10 -9 -2 -37 -9 -62 -16 -25 -7 -52 -13 -60 -15 -8 -2 -38 -10
-66 -20 -28 -9 -57 -18 -65 -19 -8 -2 -23 -7 -34 -11 -11 -4 -67 -26 -125 -48
-116 -43 -367 -163 -388 -184 -7 -7 -20 -13 -27 -13 -7 0 -20 -6 -27 -13 -7
-7 -42 -30 -78 -52 -36 -21 -66 -43 -68 -47 -2 -4 -8 -8 -13 -8 -6 0 -15 -5
-22 -10 -7 -6 -52 -40 -102 -77 -49 -36 -91 -70 -93 -75 -2 -4 -8 -8 -12 -8
-27 0 -355 -329 -443 -445 -4 -5 -35 -46 -67 -90 -33 -44 -64 -85 -70 -92 -5
-7 -10 -15 -10 -18 0 -3 -16 -27 -35 -54 -19 -26 -35 -52 -35 -55 0 -4 -11
-22 -25 -40 -14 -18 -25 -35 -25 -39 0 -3 -25 -52 -55 -108 -59 -111 -148
-317 -189 -440 -40 -120 -77 -261 -72 -267 3 -3 2 -10 -3 -16 -5 -6 -12 -31
-16 -56 -4 -24 -8 -47 -10 -50 -5 -7 -34 -209 -42 -280 -3 -30 -7 -57 -10 -60
-10 -10 -1443 -5 -1444 5 -1 6 0 15 1 20 2 9 6 75 14 200 2 28 9 82 16 120 6
39 13 84 15 100 2 26 23 143 41 230 3 17 7 39 8 50 1 12 5 26 9 32 4 7 10 31
13 55 4 24 10 50 15 59 4 9 10 27 12 40 3 14 15 58 27 98 12 41 23 81 25 90 2
9 15 47 29 85 14 39 23 74 20 78 -3 4 -1 8 5 8 5 0 13 15 16 33 4 17 11 37 14
42 4 6 16 33 26 60 56 155 203 455 301 618 30 49 54 91 54 93 0 7 145 219 152
222 4 2 8 8 8 12 0 8 76 115 118 166 9 11 33 40 52 64 153 193 470 513 638
645 14 11 44 36 67 55 23 19 55 44 71 55 15 11 40 31 56 43 15 13 28 21 28 18
0 -3 12 5 28 18 15 14 81 60 147 102 66 43 122 81 123 86 2 4 12 8 23 8 10 0
19 4 19 8 0 5 23 19 50 32 28 13 50 26 50 30 0 3 16 12 35 19 19 7 35 17 35
22 0 5 3 8 8 7 4 -1 68 28 142 64 197 96 429 193 510 213 8 2 40 13 70 24 45
17 270 82 330 96 8 2 15 4 15 5 0 1 14 3 30 5 17 2 48 9 70 15 22 5 51 12 65
14 14 3 25 5 25 6 0 1 14 3 30 5 35 5 158 24 195 31 14 3 41 7 60 9 19 2 60 6
90 10 88 11 116 13 290 20 91 4 166 7 167 8 1 2 32 1 238 -8z m1615 -2743 c29
-12 56 -41 54 -59 -1 -7 -2 -21 -3 -31 -1 -20 -79 -155 -93 -160 -4 -2 -8 -8
-8 -14 0 -6 -11 -26 -25 -44 -14 -18 -25 -35 -25 -38 0 -4 -17 -32 -38 -64
-21 -31 -62 -93 -90 -137 -28 -44 -55 -84 -59 -90 -5 -5 -12 -17 -16 -25 -4
-8 -13 -24 -19 -34 -7 -11 -37 -55 -65 -98 -29 -44 -53 -82 -53 -84 0 -2 -36
-58 -80 -124 -43 -66 -76 -120 -72 -120 4 0 2 -4 -4 -8 -15 -10 -125 -182
-116 -182 4 0 2 -4 -5 -8 -15 -9 -93 -129 -93 -142 0 -6 -4 -10 -9 -10 -5 0
-15 -12 -23 -27 -13 -27 -39 -67 -182 -288 -40 -60 -90 -138 -112 -173 -21
-35 -47 -75 -56 -90 -44 -70 -64 -127 -60 -174 0 -10 -1 -18 -3 -18 -2 0 -33
44 -68 98 -89 137 -101 157 -96 157 2 0 -6 11 -18 25 -13 13 -23 30 -23 37 0
7 -4 13 -8 13 -5 0 -19 20 -32 45 -13 25 -26 45 -30 45 -3 0 -12 16 -20 35 -8
19 -17 35 -20 35 -4 0 -12 11 -18 24 -6 14 -22 42 -35 63 -13 21 -24 42 -25
47 0 5 -4 12 -9 15 -12 8 -42 81 -47 111 -6 47 15 90 147 297 73 115 155 244
182 288 27 44 52 82 55 85 12 11 60 90 55 90 -3 0 6 12 20 27 14 15 25 31 25
36 0 4 18 35 40 67 22 32 40 63 40 69 0 5 4 11 8 13 4 2 30 39 57 83 27 44 53
82 57 83 5 2 8 8 8 13 0 6 27 50 60 100 33 49 60 92 60 95 0 8 44 69 53 72 4
2 7 8 7 14 0 21 41 67 63 70 57 8 744 -1 767 -10z m-1899 -34 c2 -212 -1
-2358 -4 -2373 -3 -11 -8 -45 -12 -75 -3 -30 -11 -73 -17 -95 -5 -22 -12 -48
-14 -57 -2 -10 -6 -26 -8 -35 -9 -40 -60 -172 -87 -226 -104 -211 -271 -351
-454 -382 -43 -7 -180 -6 -230 1 -69 10 -95 17 -95 25 0 5 -7 9 -16 9 -15 0
-15 2 0 25 9 14 13 25 9 25 -5 0 -3 4 3 8 9 6 72 148 79 177 1 5 5 17 8 25 6
16 26 91 33 125 2 11 7 31 10 45 17 73 32 175 40 265 3 33 7 436 9 895 2 459
5 851 8 870 6 35 15 97 22 135 1 11 8 40 15 65 7 25 13 50 15 55 1 6 8 24 14
40 7 17 14 37 16 46 5 22 63 128 99 178 71 100 172 180 281 222 17 7 37 14 45
15 92 21 151 31 187 33 l43 2 1 -43z m-2972 -1603 c4 -16 5 -43 1 -60 -3 -16
-3 -49 0 -72 4 -24 4 -43 0 -43 -4 0 -5 -13 -2 -30 3 -24 1 -30 -14 -31 -22
-1 -1391 -1 -1415 0 -15 1 -17 17 -17 129 0 97 4 128 14 132 7 3 331 5 719 5
l706 0 8 -30z m7533 20 c4 -5 8 -65 8 -131 0 -118 -1 -122 -22 -126 -13 -2
-338 -3 -723 -2 l-700 1 -1 131 c-2 126 -1 131 20 134 61 9 1412 2 1418 -7z
m-3217 -147 c11 -21 22 -38 25 -38 4 0 12 -16 20 -35 8 -19 17 -35 22 -35 4 0
8 -6 8 -13 0 -8 9 -24 20 -37 11 -13 20 -28 20 -35 0 -6 8 -20 18 -31 10 -10
20 -23 21 -29 3 -8 70 -124 132 -225 88 -146 149 -253 149 -260 0 -6 5 -10 10
-10 6 0 10 -5 10 -10 0 -6 23 -47 50 -91 28 -44 50 -84 50 -88 0 -4 10 -18 23
-31 12 -14 20 -25 17 -25 -5 0 60 -117 70 -125 4 -3 13 -20 21 -37 8 -18 17
-33 21 -33 5 0 8 -4 8 -9 0 -9 99 -182 109 -191 4 -3 15 -23 26 -45 11 -22 23
-42 26 -45 4 -3 16 -24 28 -47 44 -87 16 -183 -59 -201 -12 -3 -130 -4 -195
-2 -5 0 -31 0 -56 -1 -25 -1 -51 1 -57 5 -7 4 -12 4 -12 -1 0 -9 -161 -9 -184
0 -9 4 -17 3 -20 -1 -2 -4 -22 -6 -43 -5 -21 2 -60 3 -88 2 -90 -1 -140 -1
-155 3 -15 3 -71 95 -174 283 -6 11 -17 28 -25 38 -8 9 -11 17 -7 17 4 0 -1
12 -12 28 -10 15 -32 52 -49 82 -17 30 -40 73 -53 95 -13 22 -35 63 -50 90
-27 49 -51 93 -105 190 -95 168 -123 231 -122 275 0 60 5 71 83 192 36 57 79
123 95 148 16 25 34 52 39 60 55 81 160 245 160 250 0 4 9 15 20 25 11 10 20
22 20 27 0 5 12 25 27 44 l26 35 36 -58 c20 -32 45 -75 56 -95z m-4312 -218
c6 -7 29 -185 29 -222 -1 -10 4 -20 9 -23 5 -4 7 -10 4 -15 -3 -5 -1 -30 5
-57 5 -26 12 -59 14 -73 17 -97 103 -381 138 -460 11 -24 21 -49 23 -55 2 -12
13 -37 49 -118 14 -31 25 -60 25 -63 0 -3 6 -16 15 -29 8 -13 32 -54 52 -92
68 -126 211 -346 259 -399 6 -6 21 -26 35 -44 14 -18 33 -42 43 -54 180 -209
315 -338 502 -478 66 -49 128 -96 138 -104 9 -8 19 -14 22 -14 3 0 36 -20 75
-45 38 -25 70 -42 70 -37 0 4 4 2 8 -5 10 -16 242 -137 242 -126 0 4 4 2 9 -5
4 -7 14 -14 22 -15 8 -2 19 -6 25 -9 36 -23 271 -108 278 -100 3 3 6 0 6 -6 0
-7 7 -12 15 -12 8 0 54 -12 102 -26 96 -28 116 -33 153 -38 14 -3 32 -7 40
-10 16 -6 38 -10 135 -26 96 -15 157 -23 205 -24 25 -1 50 -4 55 -8 11 -6 477
-2 541 5 59 7 144 18 179 24 17 2 39 6 50 8 76 12 99 16 195 40 36 9 73 18 83
20 10 2 32 9 50 15 18 5 60 19 95 30 71 23 187 65 217 80 50 23 120 54 125 55
15 2 70 31 70 36 0 4 11 10 24 13 31 8 173 89 295 170 287 190 538 427 769
728 29 37 52 71 52 76 0 4 8 17 18 28 10 10 35 48 57 84 21 36 41 67 44 70 18
15 153 289 200 402 37 90 107 296 117 343 2 11 13 56 23 100 11 44 23 96 26
115 3 19 10 58 15 85 11 53 18 108 25 193 2 28 8 58 12 65 6 10 152 13 727 13
l718 -1 -5 -92 c-3 -51 -9 -98 -12 -103 -3 -6 -1 -10 5 -10 6 0 8 -4 5 -10 -8
-13 -12 -33 -19 -101 -3 -30 -8 -65 -10 -79 -3 -14 -10 -59 -16 -100 -7 -41
-14 -84 -16 -95 -3 -11 -11 -54 -19 -95 -20 -100 -19 -98 -55 -230 -18 -63
-33 -122 -35 -130 -2 -8 -4 -16 -5 -17 -2 -2 -3 -6 -4 -10 -3 -15 -38 -118
-46 -138 -4 -11 -15 -42 -25 -70 -19 -58 -19 -57 -76 -195 -24 -58 -44 -107
-44 -110 -2 -14 -206 -412 -216 -420 -3 -3 -14 -21 -24 -40 -20 -40 -217 -340
-237 -361 -7 -8 -40 -50 -73 -94 -177 -234 -444 -513 -670 -699 -33 -28 -68
-57 -77 -65 -76 -70 -453 -331 -478 -331 -5 0 -10 -3 -10 -8 0 -4 -17 -16 -37
-27 -21 -11 -64 -35 -95 -53 -32 -18 -61 -33 -65 -34 -5 -1 -28 -13 -53 -28
-25 -14 -70 -38 -100 -52 -118 -57 -231 -108 -236 -108 -3 0 -20 -7 -37 -15
-44 -20 -133 -54 -187 -71 -25 -8 -54 -19 -65 -24 -17 -7 -57 -21 -75 -25 -3
-1 -32 -10 -65 -20 -33 -11 -62 -20 -65 -20 -3 -1 -18 -5 -35 -9 -16 -4 -37
-10 -45 -13 -19 -7 -158 -41 -245 -59 -114 -24 -202 -39 -285 -49 -19 -3 -51
-7 -70 -10 -32 -5 -112 -13 -200 -20 -90 -7 -314 -16 -395 -16 -129 0 -415 19
-530 35 -22 3 -65 8 -95 12 -30 3 -58 8 -61 10 -4 2 -26 6 -50 9 -24 3 -87 14
-139 26 -52 11 -104 22 -115 24 -49 9 -75 16 -114 29 -22 9 -41 13 -41 11 0
-2 -18 2 -40 10 -22 8 -43 14 -45 14 -3 0 -38 11 -78 23 -39 12 -74 23 -77 23
-3 1 -18 7 -33 13 -16 7 -32 12 -36 12 -4 0 -52 18 -107 40 -54 23 -100 40
-102 40 -1 0 -16 7 -32 15 -16 8 -32 16 -35 16 -2 0 -20 6 -39 14 -20 8 -40
15 -46 15 -5 0 -10 5 -10 12 0 6 -3 9 -6 6 -3 -4 -33 8 -67 25 -34 17 -64 32
-67 32 -3 0 -21 10 -40 20 -19 11 -60 33 -91 50 -31 16 -76 41 -100 54 -24 13
-63 37 -86 52 -23 16 -44 29 -48 29 -10 0 -297 196 -322 220 -13 11 -23 18
-23 15 0 -4 -6 0 -14 7 -7 7 -36 31 -65 53 -29 22 -64 51 -79 64 -15 13 -51
44 -81 70 -29 25 -72 63 -95 83 -22 21 -44 38 -48 38 -5 0 -8 7 -8 15 0 8 -4
15 -9 15 -14 0 -160 150 -296 305 -43 48 -136 164 -170 211 -11 15 -26 33 -32
40 -7 7 -13 17 -13 22 0 6 -4 12 -8 14 -4 2 -28 32 -52 68 -25 36 -50 71 -57
78 -6 6 -15 21 -18 32 -3 11 -11 20 -16 20 -5 0 -9 7 -9 15 0 8 -4 15 -10 15
-5 0 -10 7 -10 15 0 8 -4 15 -8 15 -4 0 -13 12 -20 28 -6 15 -23 45 -37 67
-14 22 -31 51 -38 65 -6 14 -17 30 -22 36 -29 31 -214 422 -270 574 -16 41
-32 79 -37 85 -4 5 -8 17 -8 27 0 10 -4 26 -9 36 -8 14 -60 166 -67 197 -2 6
-5 19 -8 30 -2 11 -9 32 -15 48 -6 15 -9 27 -6 27 2 0 -2 17 -8 38 -7 20 -13
44 -12 52 0 8 -3 17 -7 20 -3 3 -9 19 -12 35 -2 17 -5 30 -6 30 -1 0 -3 11 -5
25 -2 14 -6 39 -10 55 -3 17 -13 66 -21 110 -8 44 -17 91 -19 105 -3 14 -8 50
-11 80 -2 30 -7 62 -9 70 -6 21 -16 138 -20 210 -1 33 -5 63 -8 67 -4 3 -2 13
2 22 8 15 73 16 724 16 394 0 717 -2 720 -5z m1286 -139 c44 -14 104 -54 142
-94 63 -68 114 -211 118 -332 2 -37 7 -80 11 -80 1 0 4 -20 6 -45 27 -244 171
-567 295 -661 17 -13 37 -29 44 -36 20 -19 131 -73 149 -73 10 0 15 -4 12 -8
-8 -13 -301 -3 -381 13 -16 3 -48 8 -70 11 -22 4 -48 11 -58 16 -10 5 -21 7
-24 4 -12 -12 -299 107 -323 134 -3 3 -21 17 -40 30 -52 35 -154 139 -186 190
-32 51 -84 150 -79 150 2 0 -3 16 -11 35 -8 19 -11 35 -8 35 4 0 2 6 -3 13 -5
6 -10 26 -12 42 -2 17 -6 32 -10 35 -7 5 -9 43 -12 190 -1 79 3 108 25 173 29
87 51 123 113 184 83 82 191 108 302 74z"/>
<path d="M4957 9033 c-3 -4 -8 -69 -12 -143 -3 -74 -8 -157 -10 -185 -2 -27
-6 -88 -10 -135 -3 -47 -8 -115 -10 -151 -6 -77 -6 -76 80 -75 l59 1 3 35 c5
61 11 144 12 167 1 25 58 86 75 80 11 -4 106 -154 106 -168 0 -5 3 -9 8 -9 4
0 15 -17 25 -38 41 -84 52 -91 157 -96 52 -3 89 -3 83 0 -7 3 -13 9 -13 14 0
12 -81 134 -92 138 -4 2 -8 9 -8 16 0 7 -13 30 -30 52 -16 21 -30 43 -30 47 0
4 -4 13 -10 20 -22 26 -80 120 -80 128 0 11 17 27 100 99 35 30 75 66 89 79
14 13 40 35 57 50 48 43 47 47 -14 50 -31 1 -73 3 -92 5 -37 2 -31 7 -200
-154 -32 -30 -72 -68 -89 -85 l-32 -29 6 74 c3 41 8 101 10 132 3 32 2 63 -1
71 -6 15 -128 24 -137 10z"/>
<path d="M5774 8947 c-6 -16 -72 -262 -78 -292 -5 -24 -10 -42 -31 -120 -9
-33 -18 -67 -20 -75 -2 -8 -13 -49 -24 -90 -21 -75 -19 -88 15 -94 18 -4 164
-42 334 -88 41 -11 82 -21 90 -23 8 -2 23 -6 32 -10 13 -5 19 2 28 35 6 23 13
47 15 53 8 20 -10 37 -41 43 -16 3 -47 10 -69 16 -62 18 -84 23 -122 32 -90
20 -133 39 -129 54 3 9 13 47 22 85 18 72 25 77 79 57 14 -5 36 -12 48 -14 38
-8 60 -14 122 -31 103 -29 101 -29 114 28 7 31 8 54 2 60 -5 5 -60 22 -123 39
-62 16 -130 34 -151 39 -36 10 -38 12 -32 42 24 115 31 120 112 92 23 -8 56
-17 74 -20 18 -3 36 -8 41 -11 5 -3 19 -7 31 -9 12 -2 46 -10 75 -19 40 -11
54 -12 57 -3 16 49 25 101 18 107 -7 6 -65 23 -153 44 -8 2 -35 9 -60 16 -25
7 -54 14 -65 16 -11 2 -50 12 -87 23 -38 11 -68 17 -68 13 0 -3 -5 -1 -12 6
-16 16 -37 15 -44 -1z"/>
<path d="M4005 8927 c-65 -15 -67 -16 -61 -34 3 -10 7 -34 11 -53 3 -19 31
-163 63 -320 52 -258 59 -285 77 -285 22 0 70 8 302 56 l161 33 -5 45 c-6 53
-20 84 -34 76 -10 -7 -35 -12 -91 -19 -21 -2 -41 -7 -46 -10 -5 -3 -31 -8 -58
-12 -27 -3 -52 -8 -56 -10 -20 -12 -78 -13 -79 -1 -2 25 -6 53 -14 87 -4 19
-9 44 -11 55 -1 11 -12 65 -23 120 -12 55 -28 138 -37 185 -9 47 -18 86 -19
88 -7 8 -44 7 -80 -1z"/>
<path d="M3481 8758 c-29 -10 -91 -37 -111 -47 -16 -9 -17 -38 -6 -236 3 -55
8 -183 11 -285 6 -209 10 -237 28 -222 7 6 38 20 70 32 l58 22 -6 41 c-8 56
-6 98 5 112 5 6 33 19 62 29 29 11 58 22 63 27 16 12 98 38 106 34 3 -3 24
-27 45 -55 42 -55 48 -56 119 -26 17 7 41 17 53 22 l24 10 -39 41 c-21 23 -63
69 -93 103 -30 34 -74 82 -97 107 -24 24 -43 47 -43 49 0 2 -15 19 -32 37 -18
19 -55 60 -82 91 -101 116 -110 124 -135 114z m112 -291 c18 -22 42 -50 54
-64 11 -14 19 -32 16 -40 -3 -8 -8 -12 -10 -9 -3 2 -35 -8 -71 -24 -37 -16
-68 -27 -70 -26 -3 4 -10 80 -16 191 l-6 90 36 -40 c20 -22 50 -57 67 -78z"/>
<path d="M6455 8618 c-33 -66 -102 -202 -153 -302 -50 -99 -91 -185 -89 -189
1 -5 26 -22 54 -37 l52 -29 19 27 c10 15 67 125 127 244 60 120 110 216 112
215 2 -2 -4 -26 -12 -52 -8 -27 -12 -51 -10 -53 2 -3 0 -12 -5 -22 -9 -16 -15
-40 -27 -105 -3 -16 -9 -37 -13 -45 -4 -8 -11 -31 -14 -50 -3 -19 -17 -75 -30
-125 -19 -68 -22 -91 -13 -98 30 -20 109 -58 117 -55 5 2 31 31 58 66 53 66
120 147 137 166 6 6 30 36 55 66 25 30 47 57 50 60 3 3 18 20 33 38 31 39 35
31 8 -18 -47 -88 -221 -434 -221 -440 0 -11 113 -61 121 -53 21 22 307 600
301 610 -6 9 -164 93 -176 93 -2 0 -48 -53 -102 -117 -108 -131 -107 -130
-161 -193 -22 -25 -51 -60 -66 -79 -33 -40 -33 -43 8 123 15 60 29 116 30 125
2 9 4 16 5 16 2 0 6 18 14 55 3 14 14 58 25 99 11 40 17 79 14 87 -2 7 -21 20
-41 29 -20 9 -58 27 -83 41 -26 13 -51 24 -55 24 -5 0 -36 -55 -69 -122z"/>
<path d="M2788 8407 c-24 -11 -45 -22 -48 -26 -8 -10 -69 -51 -75 -51 -3 0
-13 -6 -21 -12 -8 -7 -20 -18 -27 -23 -7 -6 -29 -19 -49 -30 -21 -11 -38 -23
-38 -27 0 -5 -5 -8 -10 -8 -6 0 -20 -8 -31 -18 -19 -19 -19 -19 8 -58 16 -22
33 -47 38 -57 6 -9 79 -120 164 -246 l154 -230 36 19 c20 11 47 28 60 38 l24
19 -76 111 c-86 127 -89 110 28 184 51 32 76 43 90 38 11 -4 22 -6 25 -5 3 2
34 -36 70 -83 66 -88 89 -104 114 -80 8 7 33 24 55 38 23 13 41 28 41 32 0 4
-13 14 -30 23 -16 9 -30 20 -30 25 0 5 -6 15 -12 22 -7 7 -25 31 -41 54 -40
59 -73 84 -115 88 -20 3 -39 5 -41 5 -2 1 2 8 9 16 21 25 17 106 -9 155 -26
51 -40 64 -97 91 -51 23 -109 22 -166 -4z m140 -161 c43 -62 23 -101 -81 -168
-29 -18 -54 -35 -57 -38 -20 -25 -39 -14 -80 48 -57 84 -56 80 -34 100 38 34
140 96 169 102 36 8 54 -2 83 -44z"/>
<path d="M7338 8273 c-10 -2 -18 -8 -18 -13 0 -5 -6 -15 -13 -22 -7 -7 -28
-33 -47 -58 -18 -25 -41 -53 -49 -62 -9 -10 -25 -29 -36 -43 -11 -15 -25 -32
-30 -38 -6 -7 -38 -46 -70 -87 -33 -41 -62 -77 -65 -80 -4 -3 -19 -23 -36 -45
-16 -21 -37 -47 -46 -57 -10 -10 -18 -21 -18 -26 0 -4 25 -27 56 -51 52 -41
56 -42 69 -25 45 64 137 174 146 174 4 0 24 -16 45 -35 55 -50 133 -100 177
-115 90 -29 188 30 248 148 32 64 31 115 -6 177 -23 40 -89 105 -107 105 -4 0
-8 8 -8 17 0 9 -3 14 -6 10 -4 -3 -12 -1 -19 6 -6 7 -27 23 -45 37 -18 14 -44
35 -59 47 -14 13 -30 23 -34 23 -5 0 -5 5 -2 10 6 10 2 11 -27 3z m87 -209
c17 -14 42 -35 57 -47 34 -27 52 -69 44 -102 -12 -49 -79 -97 -118 -85 -5 1
-12 3 -17 4 -17 2 -130 91 -131 102 0 16 111 154 124 154 6 0 25 -12 41 -26z"/>
<path d="M2207 7924 c-2 -3 -14 -7 -27 -9 -12 -2 -29 -10 -38 -17 -9 -7 -23
-17 -30 -23 -22 -17 -237 -235 -240 -244 -4 -12 478 -487 490 -483 19 5 225
217 254 261 24 37 29 55 31 118 2 81 -9 115 -63 200 -34 53 -70 90 -149 150
-32 25 -98 45 -156 48 -37 2 -69 2 -72 -1z m93 -138 c27 -9 113 -77 145 -115
57 -68 78 -145 56 -203 -11 -29 -115 -138 -132 -138 -5 0 -80 70 -166 156
l-155 156 28 31 c105 112 150 135 224 113z"/>
<path d="M7858 7737 c-25 -23 -57 -51 -70 -62 -84 -71 -156 -133 -174 -150
-11 -11 -47 -42 -79 -70 -33 -27 -78 -67 -102 -87 l-43 -37 56 -65 c31 -36 60
-66 65 -66 5 0 9 -6 9 -13 0 -7 8 -20 18 -28 9 -9 52 -57 95 -107 43 -51 83
-92 87 -92 5 0 13 6 17 13 4 8 22 24 40 37 l32 23 -31 40 c-34 42 -78 93 -145
166 -23 25 -43 51 -43 57 0 12 24 38 76 81 22 18 53 44 69 58 17 15 52 45 79
68 28 23 60 51 72 62 12 11 45 40 73 64 l50 44 -19 26 c-29 40 -64 76 -75 78
-6 1 -31 -17 -57 -40z"/>
<path d="M1669 7380 c-13 -22 -27 -40 -31 -40 -5 0 -8 -8 -8 -19 0 -21 23 -45
33 -34 4 3 7 1 7 -6 0 -6 8 -15 18 -19 32 -12 322 -206 316 -211 -6 -6 -124
-7 -124 -1 0 3 -33 5 -73 6 -39 1 -110 4 -157 9 -47 4 -107 8 -133 10 l-49 3
-39 -61 c-21 -33 -39 -63 -39 -66 0 -8 127 -91 140 -91 5 0 10 -4 10 -8 0 -5
12 -15 28 -23 15 -8 57 -35 95 -61 37 -27 69 -48 72 -48 2 0 39 -24 82 -53 43
-29 85 -56 93 -60 8 -4 26 -14 39 -22 23 -13 26 -12 53 31 15 25 28 50 28 57
0 7 -17 23 -38 37 -20 14 -41 28 -47 33 -19 14 -80 52 -107 66 -16 8 -28 18
-28 23 0 4 -7 8 -15 8 -8 0 -15 5 -15 10 0 6 -7 10 -15 10 -8 0 -15 4 -15 9 0
5 -8 11 -17 15 -22 7 -51 26 -75 49 -19 18 -18 18 26 14 25 -2 46 0 46 5 0 5
6 6 13 1 6 -4 30 -8 52 -10 22 -1 81 -4 130 -7 50 -3 131 -8 181 -11 l90 -5
37 53 c37 53 45 77 28 77 -5 0 -16 6 -23 13 -7 7 -32 24 -55 37 -24 13 -43 27
-43 32 0 4 -6 8 -14 8 -7 0 -20 7 -27 16 -7 9 -22 20 -34 25 -23 10 -27 13
-152 97 -51 34 -96 62 -99 62 -3 0 -20 11 -36 25 -17 14 -43 32 -58 40 -26 13
-27 13 -51 -25z"/>
<path d="M8179 7165 c-79 -53 -153 -102 -164 -111 -11 -8 -72 -48 -135 -90
-63 -41 -116 -78 -117 -82 -2 -4 14 -32 35 -64 l37 -56 179 119 c98 65 182
119 187 119 6 0 12 7 15 15 4 8 10 15 14 15 18 0 180 114 180 126 0 8 -4 14
-10 14 -5 0 -10 5 -10 12 0 14 -48 78 -59 78 -5 0 -73 -43 -152 -95z"/>
<path d="M8424 6899 c-337 -162 -416 -199 -424 -199 -6 0 -10 -4 -10 -9 0 -7
-37 -22 -62 -25 -13 -2 -10 -19 14 -73 12 -29 28 -53 36 -53 7 0 34 11 60 24
26 14 106 52 177 86 72 33 142 67 157 75 38 22 40 19 15 -21 -41 -67 -56 -89
-174 -257 -90 -129 -113 -163 -113 -171 0 -19 55 -126 65 -126 6 0 21 7 33 16
12 8 22 12 22 7 0 -4 4 -3 8 2 4 6 23 18 42 27 19 9 63 30 97 46 34 17 64 28
67 24 3 -3 6 0 6 6 0 7 4 12 10 12 5 0 66 27 136 60 69 33 130 60 135 60 5 0
9 4 9 9 0 5 10 11 23 13 29 4 29 22 0 81 -25 50 -37 56 -69 32 -10 -8 -27 -15
-36 -15 -10 0 -18 -4 -18 -10 0 -5 -5 -10 -11 -10 -6 0 -67 -28 -137 -61 -215
-104 -202 -104 -131 -2 34 49 73 106 87 128 15 22 29 42 32 45 4 3 21 28 39
55 18 28 48 70 66 95 l33 45 -18 38 c-10 21 -20 41 -21 45 -7 27 -23 49 -34
49 -7 0 -57 -22 -111 -48z"/>
<path d="M1263 6708 c-5 -7 -19 -40 -32 -73 -13 -33 -30 -73 -37 -90 -7 -16
-27 -66 -45 -110 -17 -44 -36 -91 -42 -105 -6 -14 -11 -27 -12 -30 -1 -3 -5
-13 -10 -23 -10 -25 -5 -28 105 -71 52 -21 156 -62 230 -92 173 -71 169 -69
210 -87 93 -41 89 -41 110 6 10 23 19 47 20 52 1 6 11 28 23 50 11 22 19 40
18 40 -3 0 10 34 52 137 36 89 43 107 47 123 1 6 6 15 10 20 12 15 0 28 -40
43 -59 22 -65 22 -77 -6 -7 -15 -39 -92 -72 -172 -67 -161 -66 -160 -143 -120
-21 11 -38 17 -38 14 0 -2 -9 0 -21 6 -16 9 -19 17 -13 43 3 18 10 37 14 42 4
6 15 33 25 60 10 28 22 55 27 61 5 7 10 20 13 30 2 11 10 35 19 55 l15 37 -52
21 -51 22 -18 -23 c-9 -12 -15 -24 -13 -26 3 -4 -36 -102 -83 -205 -14 -32
-31 -56 -36 -53 -6 2 -31 12 -56 21 -71 28 -71 29 -45 89 13 30 21 57 18 60
-4 3 -1 6 5 6 6 0 16 17 22 38 6 20 18 51 25 67 46 105 47 108 28 119 -10 5
-19 9 -21 8 -1 -1 -15 4 -32 13 -35 18 -35 18 -47 3z"/>
<path d="M8790 6168 c-34 -34 -93 -96 -130 -135 -40 -42 -77 -73 -88 -73 -11
0 -38 7 -61 15 -22 8 -41 12 -41 10 0 -2 -12 2 -26 10 -15 7 -33 11 -40 8 -8
-3 -14 0 -14 6 0 6 -10 11 -22 11 -13 0 -42 9 -65 20 -24 10 -43 17 -43 15 0
-2 -16 3 -35 10 l-34 15 4 -33 c2 -17 10 -54 17 -81 l14 -49 84 -24 c47 -14
98 -26 115 -29 16 -2 36 -10 44 -18 12 -12 6 -21 -39 -63 -29 -26 -72 -67 -96
-91 l-42 -42 15 -58 c8 -31 17 -65 19 -76 2 -10 6 -21 9 -25 7 -6 145 138 145
151 0 4 7 8 15 8 8 0 15 3 15 8 0 4 27 36 60 71 58 61 60 63 91 52 17 -6 35
-9 39 -6 5 3 10 2 12 -3 4 -9 280 -101 289 -96 8 5 -28 135 -41 148 -8 8 -80
31 -125 40 -5 1 -16 5 -22 9 -7 5 -17 6 -22 2 -5 -3 -13 0 -16 6 -4 5 -13 8
-21 5 -8 -3 -17 1 -21 9 -3 10 23 43 81 97 83 78 86 83 80 117 -3 20 -8 43
-11 51 -3 8 -8 24 -10 35 -8 40 -22 36 -83 -27z"/>
<path d="M996 5977 c-30 -106 -27 -135 14 -138 8 0 22 -2 30 -4 59 -14 116
-23 122 -19 5 3 8 1 8 -4 0 -5 17 -12 38 -15 33 -5 76 -14 107 -21 12 -3 75
-16 95 -20 30 -5 95 -26 108 -34 7 -5 15 -25 19 -45 4 -29 1 -40 -20 -61 -24
-23 -31 -25 -91 -21 -72 6 -68 9 -80 -65 -3 -14 -5 -25 -6 -25 -1 0 -3 -8 -5
-17 -4 -23 25 -28 130 -25 61 3 89 8 96 18 5 8 9 10 9 5 0 -24 55 54 71 102
26 75 24 147 -4 196 -23 42 -95 91 -144 99 -15 3 -35 8 -43 11 -8 3 -28 7 -45
10 -16 2 -66 12 -110 21 -44 10 -87 19 -95 20 -8 2 -15 4 -15 5 0 2 -21 6 -66
14 -20 3 -42 8 -50 10 -35 13 -70 14 -73 3z"/>
<path d="M1635 4422 c-7 -7 -6 -57 1 -65 3 -3 8 -27 10 -54 2 -26 8 -49 14
-51 6 -2 8 -8 5 -12 -7 -12 36 -194 47 -198 4 -2 6 -7 3 -12 -4 -7 5 -43 22
-90 3 -8 8 -23 9 -32 2 -9 20 -59 39 -110 20 -51 38 -102 40 -112 3 -11 9 -24
15 -30 5 -5 10 -18 10 -28 0 -10 4 -18 10 -18 5 0 9 -3 8 -7 -4 -15 13 -53 23
-53 6 0 8 -4 5 -9 -10 -15 211 -422 243 -451 3 -3 11 -13 16 -22 48 -82 198
-276 300 -387 110 -120 365 -363 365 -347 0 2 13 -8 29 -23 40 -37 239 -181
250 -181 5 0 11 -4 13 -8 4 -9 123 -84 218 -136 142 -79 442 -214 490 -221 8
-1 32 -10 52 -19 21 -9 48 -18 60 -20 13 -3 24 -5 26 -7 1 -1 5 -2 10 -3 4 -1
12 -4 18 -8 6 -4 25 -10 42 -13 17 -3 42 -9 55 -14 14 -6 28 -7 31 -4 3 3 11
1 18 -5 12 -9 128 -37 198 -47 14 -2 50 -9 80 -15 30 -6 75 -13 100 -16 25 -2
61 -6 80 -9 180 -25 548 -25 750 -1 69 9 197 27 210 31 13 3 97 19 115 21 23
3 59 11 85 19 10 3 28 8 39 10 12 3 29 7 40 9 64 14 276 83 326 105 11 5 34
14 50 20 57 19 144 57 159 70 9 8 16 11 16 7 0 -8 226 109 314 162 37 23 70
42 72 42 3 0 14 9 26 20 12 11 28 20 35 20 7 0 13 5 13 10 0 6 6 10 13 10 6 0
26 11 42 25 38 31 41 33 100 74 28 19 52 37 55 40 5 6 101 85 134 111 42 32
295 288 347 350 29 36 56 67 60 70 3 3 35 46 72 95 37 50 72 96 78 103 18 22
144 224 179 287 18 33 41 74 50 90 10 17 19 33 19 37 1 5 16 41 35 80 91 193
126 288 194 513 31 103 62 237 56 246 -2 4 0 10 5 14 5 3 10 13 10 23 -1 26
11 94 17 103 7 12 -35 27 -58 21 -18 -4 -22 -13 -33 -77 -12 -71 -16 -87 -31
-149 -8 -34 -16 -68 -18 -76 -7 -43 -80 -271 -114 -356 -12 -29 -18 -55 -15
-58 4 -3 2 -6 -3 -6 -6 0 -16 -17 -24 -37 -19 -55 -109 -242 -138 -288 -14
-22 -25 -42 -25 -45 0 -6 -22 -43 -48 -82 -11 -15 -19 -30 -19 -33 0 -5 -91
-146 -100 -155 -3 -3 -32 -42 -64 -87 -33 -46 -63 -83 -68 -83 -4 0 -8 -4 -8
-10 0 -5 -8 -18 -17 -28 -10 -10 -34 -38 -53 -62 -53 -65 -287 -300 -348 -348
-30 -23 -50 -42 -45 -42 4 -1 -1 -6 -12 -13 -11 -7 -72 -50 -135 -98 -113 -84
-227 -159 -332 -219 -132 -76 -475 -232 -538 -245 -8 -2 -16 -4 -17 -5 -2 -2
-6 -3 -10 -5 -5 -1 -15 -4 -23 -8 -18 -7 -90 -30 -107 -34 -7 -2 -21 -5 -30
-7 -10 -3 -18 -5 -18 -6 0 -1 -7 -3 -15 -5 -8 -2 -33 -9 -55 -15 -22 -6 -51
-13 -65 -16 -14 -2 -54 -11 -90 -19 -36 -7 -83 -16 -105 -20 -23 -3 -52 -8
-65 -11 -14 -3 -50 -7 -80 -10 -83 -8 -115 -12 -115 -14 0 -9 -451 -14 -535
-6 -25 3 -70 7 -100 10 -30 4 -73 8 -95 10 -22 3 -40 5 -40 6 0 3 -118 22
-151 25 -12 1 -29 5 -39 9 -10 4 -34 9 -54 12 -51 8 -253 63 -273 74 -10 6
-27 10 -38 10 -11 0 -28 4 -38 9 -22 11 -52 23 -137 56 -105 40 -280 118 -283
127 -2 4 -10 8 -19 8 -8 0 -27 8 -41 18 -15 10 -40 24 -57 32 -16 8 -49 27
-71 43 -23 15 -44 27 -47 27 -7 0 -220 140 -227 149 -3 3 -25 19 -49 36 -24
16 -45 35 -48 42 -3 7 -10 13 -17 13 -6 0 -36 23 -66 50 -30 27 -68 61 -85 75
-62 55 -165 158 -165 166 0 5 -7 9 -15 9 -8 0 -15 3 -15 8 0 4 -17 26 -37 48
-21 23 -54 60 -73 84 -19 23 -40 47 -45 53 -6 7 -26 33 -45 60 -18 26 -37 47
-41 47 -4 0 -10 8 -14 19 -3 10 -13 28 -23 39 -44 52 -52 63 -52 68 0 3 -17
31 -38 62 -67 99 -181 305 -180 326 0 5 -4 12 -9 15 -12 8 -126 263 -137 306
-2 6 -6 19 -10 30 -19 49 -28 76 -57 170 -17 55 -32 109 -33 120 -2 11 -8 38
-14 60 -6 22 -14 54 -17 70 -3 17 -8 37 -10 45 -2 8 -7 36 -10 61 -4 26 -11
52 -15 58 -7 13 -56 22 -65 13z"/>
<path d="M9144 4419 c-9 -15 -9 -17 -19 -88 -3 -25 -8 -47 -9 -50 -2 -3 -7
-31 -10 -61 -7 -53 -48 -243 -81 -365 -8 -33 -18 -71 -21 -84 -3 -13 -11 -39
-19 -57 -8 -19 -12 -34 -10 -34 8 0 -103 -297 -155 -412 -11 -26 -21 -50 -21
-53 0 -8 -158 -314 -184 -355 -14 -22 -25 -42 -25 -45 0 -3 -20 -36 -45 -75
-25 -39 -45 -75 -45 -80 0 -6 -3 -10 -7 -10 -5 0 -21 -21 -37 -48 -17 -26 -40
-60 -53 -77 -13 -16 -27 -35 -31 -40 -82 -112 -104 -140 -201 -257 -71 -85
-116 -134 -236 -253 -154 -153 -167 -165 -305 -279 -52 -43 -104 -86 -115 -95
-37 -31 -117 -87 -241 -168 -43 -29 -84 -56 -90 -60 -38 -29 -263 -152 -394
-216 -131 -63 -427 -187 -460 -192 -3 0 -34 -10 -70 -22 -53 -18 -124 -39
-162 -49 -5 -1 -9 -2 -10 -4 -2 -1 -12 -3 -23 -5 -11 -2 -56 -13 -99 -24 -44
-12 -89 -23 -100 -25 -12 -2 -42 -9 -69 -15 -26 -6 -64 -14 -85 -17 -20 -3
-44 -7 -52 -10 -8 -3 -35 -8 -60 -10 -25 -3 -56 -7 -70 -9 -38 -8 -129 -17
-195 -20 -33 -2 -60 -4 -60 -5 0 -4 -121 -9 -275 -10 -148 -1 -227 2 -410 14
-53 4 -197 22 -250 32 -14 2 -41 6 -60 9 -89 12 -143 22 -172 31 -10 3 -30 7
-45 10 -16 2 -44 8 -63 13 -44 12 -133 35 -140 36 -3 1 -25 7 -50 15 -25 7
-49 14 -55 15 -19 4 -290 97 -320 110 -16 7 -59 25 -95 40 -36 15 -103 45
-150 68 -47 23 -87 42 -90 42 -3 0 -12 5 -20 10 -8 5 -45 24 -82 42 -37 18
-69 37 -73 43 -4 6 -11 8 -16 5 -5 -4 -9 -1 -9 4 0 6 -6 11 -14 11 -8 0 -21 6
-28 12 -19 18 -69 48 -90 55 -10 3 -18 9 -18 14 0 5 -7 9 -15 9 -8 0 -15 5
-15 10 0 6 -5 10 -12 10 -6 0 -26 11 -44 25 -18 14 -37 25 -43 25 -6 0 -11 4
-11 9 0 5 -8 12 -17 15 -10 3 -34 19 -53 36 -19 16 -38 30 -42 30 -4 0 -13 6
-20 13 -7 7 -31 26 -53 42 -22 17 -42 32 -45 35 -3 3 -23 18 -45 35 -22 16
-42 31 -45 34 -3 4 -36 33 -75 65 -38 33 -142 132 -230 220 -152 153 -178 182
-250 271 -16 21 -38 46 -47 56 -10 11 -18 24 -18 30 0 5 -4 7 -10 4 -5 -3 -10
1 -10 9 0 9 -4 16 -8 16 -4 0 -16 13 -25 30 -10 16 -23 35 -30 42 -7 7 -37 49
-67 93 -30 44 -58 82 -62 83 -4 2 -8 8 -8 12 0 5 -27 52 -60 104 -33 53 -60
100 -60 106 0 5 -3 10 -8 10 -4 0 -13 15 -21 33 -8 17 -17 34 -21 37 -7 6
-160 314 -160 323 0 3 -13 34 -29 69 -16 35 -47 115 -71 178 -23 63 -44 122
-47 130 -3 8 -7 20 -7 25 -1 9 -42 145 -66 220 -5 17 -11 41 -14 55 -3 14 -15
66 -26 115 -20 87 -30 139 -34 180 -2 11 -6 31 -10 45 -4 14 -9 43 -11 65 -2
22 -6 49 -9 60 -2 11 -5 23 -5 28 -1 4 -17 7 -37 7 l-35 0 5 -52 c6 -54 33
-205 60 -333 90 -433 288 -931 519 -1305 42 -68 126 -198 140 -215 36 -47 107
-147 107 -150 0 -3 11 -17 25 -32 13 -16 49 -59 80 -98 127 -158 303 -343 465
-485 47 -41 87 -77 90 -80 20 -22 160 -130 168 -130 6 0 12 -3 14 -8 7 -17
262 -197 296 -209 10 -4 19 -9 22 -13 8 -9 99 -64 165 -100 33 -17 64 -36 69
-41 6 -5 18 -9 28 -9 10 0 18 -4 18 -9 0 -9 54 -35 66 -31 4 1 10 -2 13 -7 10
-13 49 -33 66 -33 8 0 15 -4 15 -8 0 -9 160 -78 173 -74 4 1 7 -3 7 -9 0 -6 7
-9 15 -5 8 3 15 1 15 -4 0 -6 5 -10 11 -10 6 0 25 -6 42 -14 18 -8 52 -21 77
-30 25 -8 69 -24 98 -35 28 -10 52 -17 52 -14 0 3 6 1 13 -5 6 -5 28 -13 47
-18 50 -11 50 -11 53 -14 4 -3 42 -12 60 -13 9 -1 17 -5 17 -10 0 -5 6 -7 14
-4 7 3 17 2 22 -3 5 -5 23 -11 39 -13 17 -3 56 -13 88 -21 31 -9 61 -15 65
-15 4 1 9 0 12 -1 3 -1 12 -3 20 -5 8 -1 40 -8 71 -14 30 -6 69 -14 85 -16 16
-3 39 -8 52 -10 12 -3 44 -8 70 -11 26 -3 58 -7 72 -9 36 -5 132 -14 229 -20
46 -3 88 -8 93 -11 4 -3 8 -1 8 5 0 6 11 7 28 2 44 -13 488 -3 602 14 14 2 50
7 80 10 30 4 62 9 70 10 8 1 40 6 70 10 30 4 64 9 75 11 11 3 36 7 55 9 19 3
46 8 60 12 39 10 42 10 84 17 21 3 43 9 48 12 5 3 19 7 31 9 12 2 29 6 37 8 8
2 34 8 58 12 23 4 42 11 42 16 0 5 3 8 8 7 14 -3 92 14 97 22 3 4 22 11 42 15
21 5 43 9 48 10 17 4 288 107 335 128 349 153 610 305 900 522 52 39 106 80
118 90 13 11 33 28 45 38 100 84 161 141 287 267 80 80 172 177 205 215 32 39
63 75 69 80 43 41 346 463 346 482 0 3 14 25 30 50 17 24 30 46 30 48 0 2 14
28 31 57 44 74 152 290 184 368 15 36 33 79 40 95 37 83 54 125 50 125 -2 0 9
32 25 70 16 39 27 70 25 70 -3 0 0 12 6 28 23 57 87 280 95 327 3 17 9 44 14
60 5 17 12 46 15 65 3 19 11 55 17 80 5 25 12 63 14 85 2 22 6 46 9 53 3 8 8
37 11 65 4 29 8 54 10 57 1 4 -6 11 -16 18 -14 8 -21 8 -26 1 -4 -8 -9 -7 -14
1 -6 9 -9 9 -16 -1z"/>
<path d="M8379 3777 c-22 -52 -26 -46 62 -117 24 -19 53 -44 65 -55 12 -11 35
-31 50 -44 100 -84 112 -101 69 -91 -11 2 -80 6 -251 14 l-111 5 -12 -25 c-18
-40 -13 -52 27 -70 69 -30 77 -33 157 -64 44 -17 89 -35 100 -39 55 -24 107
-41 114 -36 5 2 11 13 13 23 4 13 -3 22 -26 31 -17 7 -50 21 -74 32 -23 10
-49 19 -57 19 -8 0 -15 5 -15 12 0 6 -3 9 -6 5 -9 -8 -121 36 -120 48 1 12 25
13 50 2 10 -5 16 -5 13 0 -3 4 18 7 46 5 29 -1 95 -5 148 -8 94 -5 95 -5 106
19 10 22 7 28 -28 61 -22 20 -41 36 -44 36 -4 0 -48 39 -135 120 -56 52 -52
57 20 27 14 -6 27 -11 30 -12 19 -6 138 -53 165 -65 42 -17 53 -18 59 -4 10
26 -4 40 -62 64 -31 12 -70 28 -87 35 -37 16 -68 28 -75 29 -12 3 -126 50
-135 56 -30 21 -43 18 -56 -13z"/>
<path d="M1113 3749 c-20 -7 -22 -11 -11 -34 11 -24 17 -26 67 -25 85 2 88 2
96 -22 4 -13 8 -25 9 -28 1 -3 10 -29 20 -59 l19 -55 -53 -46 c-43 -38 -52
-50 -45 -66 4 -10 7 -23 6 -27 -1 -5 3 -7 8 -5 18 6 349 283 355 296 3 7 0 25
-8 40 -14 26 -14 26 -152 29 -77 1 -143 3 -149 3 -5 0 -35 -1 -66 -2 -30 -1
-59 1 -65 4 -5 3 -19 2 -31 -3z m387 -59 c15 -1 0 -15 -73 -73 -15 -12 -38
-30 -49 -40 -16 -13 -23 -14 -29 -5 -4 7 -5 16 -3 20 3 4 1 8 -4 8 -5 0 -12
10 -15 23 -3 12 -8 32 -12 44 -6 18 -3 22 22 25 24 2 109 2 163 -2z"/>
<path d="M1670 3163 c-60 -16 -107 -47 -156 -101 -38 -42 -53 -86 -47 -133 3
-19 5 -40 6 -46 0 -7 4 -13 9 -13 5 0 7 -4 4 -9 -3 -4 10 -26 29 -49 43 -49
108 -77 162 -68 21 3 44 7 51 8 14 2 15 17 2 38 -7 11 -24 14 -70 12 -58 -3
-61 -2 -94 33 -80 84 -43 200 83 257 66 30 108 31 154 5 65 -36 91 -110 61
-172 -14 -31 -15 -40 -4 -60 l13 -24 20 22 c27 31 39 66 38 113 0 41 -35 124
-51 124 -5 0 -11 9 -15 20 -3 11 -9 19 -13 18 -4 -1 -21 5 -37 14 -45 24 -83
27 -145 11z"/>
<path d="M8110 3030 c-7 -4 -20 -5 -30 -3 -41 11 -129 -60 -160 -130 -37 -80
-19 -168 47 -238 38 -41 120 -81 172 -85 50 -3 121 11 121 26 0 5 8 11 18 14
9 3 33 29 52 57 31 46 35 59 35 113 -1 37 -7 73 -18 92 -22 43 -94 112 -132
128 -59 25 -93 33 -105 26z m64 -74 c42 -18 103 -71 122 -108 29 -55 18 -120
-28 -169 -55 -59 -113 -66 -198 -23 -135 69 -149 232 -25 302 27 16 89 15 129
-2z"/>
<path d="M2179 2603 c-8 -10 -52 -52 -98 -93 -45 -41 -108 -101 -141 -132 -58
-56 -59 -57 -41 -79 l17 -22 49 44 c26 24 55 52 64 62 23 25 34 22 77 -26 66
-72 75 -85 78 -104 4 -21 -27 -69 -61 -96 -38 -31 -45 -52 -24 -76 21 -24 41
-28 41 -7 0 8 23 38 50 67 28 29 50 57 49 63 -4 37 2 46 31 46 70 0 130 63
124 127 -3 38 -33 82 -101 151 -24 24 -43 46 -43 49 0 7 -41 43 -49 43 -4 0
-14 -8 -22 -17z m64 -96 c64 -65 97 -108 97 -127 0 -10 -12 -32 -26 -49 -42
-50 -73 -43 -149 35 -36 36 -65 68 -65 72 0 8 93 100 103 101 4 1 22 -14 40
-32z"/>
<path d="M7618 2502 c-8 -9 -65 -66 -126 -125 -67 -65 -109 -114 -106 -122 12
-31 36 -23 85 26 l51 51 134 -136 c74 -75 138 -136 143 -136 4 0 15 8 24 18
16 18 10 26 -118 153 -74 74 -135 137 -135 140 0 3 23 29 52 58 51 51 52 52
32 71 -19 19 -20 19 -36 2z"/>
<path d="M2686 2134 c-4 -10 -9 -64 -12 -119 -7 -156 -11 -174 -51 -232 -63
-88 -65 -95 -41 -112 20 -14 23 -13 42 14 84 114 88 118 197 159 57 22 109 43
114 46 6 4 24 11 40 14 l30 8 -30 23 c-21 17 -33 21 -42 14 -6 -6 -16 -8 -22
-5 -5 3 -11 3 -13 -2 -1 -4 -42 -24 -90 -44 l-87 -36 4 67 c3 36 7 89 10 118
5 44 2 55 -18 79 -22 25 -24 26 -31 8z"/>
<path d="M7035 1997 c-21 -5 -50 -21 -64 -33 -14 -13 -29 -24 -33 -24 -9 0
-37 -58 -43 -89 -6 -33 17 -84 51 -110 23 -18 37 -21 72 -17 24 3 50 10 58 17
8 6 14 9 14 5 0 -4 13 0 29 8 16 9 48 20 71 25 38 8 45 7 66 -14 13 -13 24
-33 24 -44 0 -23 -20 -71 -30 -71 -3 0 -15 -8 -26 -18 -20 -20 -71 -39 -91
-36 -7 1 -20 2 -28 3 -8 0 -23 10 -34 22 -16 18 -22 19 -40 7 -28 -17 -27 -21
10 -52 52 -44 101 -46 175 -8 76 39 123 106 116 164 -5 48 -26 81 -62 99 -31
15 -47 17 -85 6 -16 -5 -34 -9 -40 -11 -5 -1 -21 -8 -35 -16 -14 -7 -26 -13
-27 -12 -4 2 -2 3 -56 -12 -19 -6 -35 -3 -52 8 -54 35 -14 121 68 149 38 12
45 12 74 -5 25 -15 36 -17 52 -9 24 13 19 34 -15 56 -32 21 -69 24 -119 12z"/>
<path d="M3256 1676 c-18 -39 -59 -124 -90 -188 -31 -64 -56 -123 -56 -131 0
-13 13 -24 30 -25 3 0 44 -20 93 -45 48 -25 87 -43 87 -40 0 3 7 0 15 -7 13
-11 18 -10 30 6 12 17 11 21 -8 36 -12 10 -27 18 -33 18 -9 0 -122 53 -143 67
-2 1 0 10 4 20 5 10 9 20 10 23 0 3 21 46 45 95 24 50 43 92 41 94 -1 2 1 7 6
10 15 11 56 109 49 119 -3 5 -15 12 -26 15 -16 4 -25 -7 -54 -67z"/>
<path d="M6493 1680 c-26 -11 -27 -13 -13 -38 5 -9 32 -70 60 -135 63 -148 65
-185 15 -233 -31 -29 -41 -32 -84 -30 -65 3 -76 17 -148 188 -32 76 -63 139
-69 142 -5 2 -19 -1 -31 -8 -21 -11 -20 -13 34 -141 69 -161 93 -200 140 -224
95 -47 229 19 253 125 5 19 4 37 -1 40 -5 3 -7 10 -3 15 7 12 -16 77 -56 159
-9 19 -27 61 -40 93 -12 31 -25 57 -29 56 -3 0 -16 -4 -28 -9z"/>
<path d="M3881 1481 c-5 -14 -24 -73 -41 -131 -17 -58 -39 -127 -48 -155 -9
-27 -17 -55 -18 -61 -1 -6 -5 -21 -9 -32 -5 -17 -1 -23 20 -28 30 -7 34 -5 40
25 2 11 7 26 10 31 3 5 8 18 10 27 2 10 17 61 33 113 47 148 63 210 58 219 -3
5 -14 11 -25 14 -14 3 -22 -2 -30 -22z"/>
<path d="M5651 1418 c-18 -5 -38 -13 -45 -19 -6 -5 -20 -17 -32 -27 -12 -9
-29 -32 -38 -50 -18 -34 -29 -139 -18 -157 4 -5 8 -21 10 -34 9 -64 76 -146
132 -161 121 -32 238 35 256 146 7 45 -3 59 -35 49 -12 -3 -21 -19 -25 -43
-11 -73 -68 -115 -146 -107 -85 9 -134 91 -132 223 0 63 38 115 94 131 65 18
116 5 143 -35 21 -33 61 -30 58 4 -8 66 -121 108 -222 80z"/>
<path d="M4430 1380 c-104 -18 -172 -123 -164 -255 2 -28 5 -59 8 -70 2 -11 5
-24 5 -28 1 -13 88 -93 103 -96 59 -10 138 -11 138 -2 0 6 6 8 14 5 15 -6 106
76 106 95 0 5 3 17 6 26 4 9 3 15 -2 14 -5 -1 -11 0 -14 1 -27 10 -41 6 -46
-15 -8 -31 -44 -64 -89 -80 -32 -10 -44 -10 -77 4 -62 25 -89 67 -92 143 -2
35 1 69 7 76 5 6 7 12 3 12 -13 0 35 79 60 99 34 27 122 29 160 5 25 -17 57
-67 52 -81 -2 -5 12 -9 30 -11 38 -4 40 5 12 62 -20 43 -88 95 -125 97 -11 0
-29 2 -40 3 -11 1 -36 -1 -55 -4z"/>
</g>
</svg>
