<svg xmlns="http://www.w3.org/2000/svg" enable-background="new 0 0 512 512" viewBox="0 0 512 512"><linearGradient id="a" x1="254.665" x2="257.252" y1="129.139" y2="374.91" gradientUnits="userSpaceOnUse"><stop offset="0" stop-color="#ea8928"/><stop offset="1" stop-color="#cf2b8f"/></linearGradient><path fill="url(#a)" d="M256,90.4L256,90.4c-91.4,0-165.6,74.3-165.6,165.6c0,36.2,11.7,69.8,31.5,97l-20.6,61.5l63.6-20.3
			c26.2,17.3,57.4,27.4,91.1,27.4c91.3,0,165.5-74.3,165.5-165.6S347.3,90.4,256,90.4z M352.4,324.2c-4,11.3-19.8,20.6-32.5,23.4
			c-8.7,1.8-20,3.3-58-12.5c-48.7-20.2-80-69.6-82.4-72.8c-2.3-3.2-19.7-26.2-19.7-49.9s12.1-35.3,16.9-40.3
			c4-4.1,10.6-5.9,16.9-5.9c2,0,3.9,0.1,5.5,0.2c4.9,0.2,7.3,0.5,10.5,8.2c4,9.6,13.7,33.4,14.9,35.8c1.2,2.4,2.4,5.8,0.7,9
			c-1.6,3.3-2.9,4.8-5.4,7.6c-2.4,2.8-4.8,5-7.2,8c-2.2,2.6-4.8,5.4-1.9,10.3c2.8,4.8,12.5,20.6,26.9,33.4
			c18.5,16.5,33.5,21.7,38.8,23.9c4,1.7,8.8,1.3,11.7-1.8c3.7-4,8.3-10.6,12.9-17.1c3.3-4.7,7.5-5.3,11.9-3.6
			c4.5,1.6,28.1,13.2,33,15.7c4.9,2.4,8.1,3.6,9.3,5.7C356.4,303.3,356.4,312.9,352.4,324.2z"/></svg>